<svg width="40" height="40" viewBox="0 0 40 40" fill="none" xmlns="http://www.w3.org/2000/svg">
<path d="M25.375 25.8749C26.75 24.6249 27.625 23.2499 28 21.9999L32.375 19.4999C33.125 19.8749 34 19.8749 34.75 19.4999C35.875 18.8749 36.375 17.3749 35.625 16.2499C35.375 15.8749 35.125 15.6249 34.75 15.3749C34.75 14.9999 34.625 14.4999 34.5 14.1249C33.875 12.9999 32.375 12.6249 31.25 13.2499C30.5 13.7499 30 14.4999 30 15.3749L25.625 17.8749C23.75 17.3749 21 17.7499 18.5 19.2499C16.625 20.3749 15.125 21.7499 14.375 23.2499" stroke="white" stroke-width="2" stroke-miterlimit="10" stroke-linecap="round" stroke-linejoin="round"/>
<path d="M28.375 21.75C28.625 22.5 28.75 23.375 28.75 24.125C28.75 29.875 23.125 31.25 16.25 31.25C9.375 31.25 3.75 29.875 3.75 24.125C3.75 18.375 9.375 13.75 16.25 13.75C20.25 13.75 23.75 15.25 26 17.625" stroke="white" stroke-width="2" stroke-miterlimit="10" stroke-linecap="round" stroke-linejoin="round"/>
<path d="M29.625 15.5001C29.875 14.8751 29.75 14.2501 29.375 13.6251C29.125 13.2501 28.875 13.0001 28.5 12.7501C28.5 12.3751 28.375 11.8751 28.25 11.5001C27.625 10.3751 26.125 10.0001 25 10.6251C24.25 11.1251 23.75 11.8751 23.75 12.7501L20.875 14.3751" stroke="white" stroke-width="2" stroke-miterlimit="10" stroke-linecap="round" stroke-linejoin="round"/>
</svg>
